<?xml version="1.0" encoding="UTF-8"?>
<svg id="a" data-name="Layer 1" xmlns="http://www.w3.org/2000/svg" viewBox="0 0 179.461 142.506">
  <defs>
    <style>
      .b {
        fill: none;
        stroke: #000;
        stroke-miterlimit: 10;
        stroke-width: 2px;
      }

      .c, .d, .e, .f {
        stroke-width: 0px;
      }

      .d {
        fill: #11c0df;
      }

      .e {
        fill: #ef4b24;
      }

      .f {
        fill: #020202;
      }
    </style>
  </defs>
  <polygon class="d" points="43.574 136.971 4.883 136.971 4.883 5.534 100.574 5.534 43.574 136.971"/>
  <polygon class="e" points="174.574 136.971 51.883 136.971 108.883 5.534 174.574 5.534 174.574 136.971"/>
  <path class="c" d="M53.916,116.896L94.952,22.3c.56-1.342,1.118-2.013,2.349-2.013,1.453,0,2.459.559,2.459,1.789,0,.783-.895,2.46-1.342,3.578l-41.036,94.597c-.56,1.342-1.118,2.013-2.349,2.013-1.453,0-2.459-.559-2.459-1.789,0-.783.895-2.46,1.342-3.578Z"/>
  <path class="c" d="M22.827,51.128c2.425-4.302,5.632-8.134,9.151-11.654-1.955-1.799-3.754-3.598-5.318-5.631-.86-1.251-1.878-2.503-1.878-3.989,0-1.017.392-1.956.86-2.894.626-1.251,1.486-2.425,2.425-3.441,1.174-1.408,2.738-2.19,4.381-2.738,2.111-.704,4.302-1.017,6.569-1.017,2.112,0,3.989.234,6.258.547l.391.626-1.173,3.285c-2.737-.157-5.71-.704-10.872-.704-2.581,0-5.084.704-5.084,3.207,0,1.095.782,2.033,1.486,2.815.312.391,4.458,4.302,6.727,6.492l7.431,7.118c2.972,3.05,5.318,6.961,5.318,11.263,0,5.475-2.111,10.794-6.022,14.705-3.285,3.363-7.587,5.632-12.28,5.632-2.659,0-5.396-.469-7.274-2.347-2.894-2.894-4.302-6.805-4.302-10.872,0-3.676,1.408-7.196,3.207-10.403ZM29.867,68.649c1.407,1.33,3.284,1.956,5.24,1.956,2.347,0,4.536-1.408,6.179-3.051,2.269-2.268,3.207-6.335,3.207-9.855,0-2.66-1.33-5.006-2.737-7.196-2.034-3.363-5.084-6.648-7.9-9.464-5.475,5.631-8.213,10.481-8.213,16.425,0,4.146,1.33,8.213,4.225,11.185Z"/>
  <g>
    <path class="f" d="M99.487,76.312c2.425-4.302,5.632-8.134,9.151-11.654-1.955-1.799-3.754-3.598-5.318-5.631-.86-1.251-1.878-2.503-1.878-3.989,0-1.017.392-1.956.86-2.894.626-1.251,1.486-2.425,2.425-3.441,1.174-1.408,2.738-2.19,4.381-2.738,2.111-.704,4.302-1.017,6.569-1.017,2.112,0,3.989.234,6.258.547l.391.626-1.173,3.285c-2.737-.157-5.71-.704-10.872-.704-2.581,0-5.084.704-5.084,3.207,0,1.095.782,2.033,1.486,2.815.312.391,4.458,4.302,6.727,6.492l7.431,7.118c2.972,3.05,5.318,6.961,5.318,11.263,0,5.475-2.111,10.794-6.022,14.705-3.285,3.363-7.587,5.632-12.28,5.632-2.659,0-5.396-.469-7.274-2.347-2.894-2.894-4.302-6.805-4.302-10.872,0-3.676,1.408-7.196,3.207-10.403ZM106.527,93.832c1.407,1.33,3.284,1.956,5.24,1.956,2.347,0,4.536-1.408,6.179-3.051,2.269-2.268,3.207-6.335,3.207-9.855,0-2.66-1.33-5.006-2.737-7.196-2.034-3.363-5.084-6.648-7.9-9.464-5.475,5.631-8.213,10.481-8.213,16.425,0,4.146,1.33,8.213,4.225,11.185Z"/>
    <path class="f" d="M134.216,65.753l.547-.469h8.213l.47-.469c0-2.738.234-6.727,1.408-9.542,1.173-2.66,2.111-3.911,4.224-5.71,2.424-1.956,5.006-2.659,7.743-2.659,4.224,0,6.257,2.112,7.274,4.224l-4.537,4.224-.938-.313c-.156-.782-.391-2.034-.782-2.659-.47-.86-1.721-2.347-3.754-2.347-1.018,0-1.878.704-2.66,1.956-1.485,2.268-2.033,7.822-2.033,12.828l.312.469h9.699l.391.547-.547,1.721-.548.469h-8.995l-.469.469v8.682c0,7.353.234,14.783.782,21.119l-6.18,1.877-1.329-.86c.625-7.743.938-15.096,1.017-22.213v-8.447l-.47-.626h-8.76l-.392-.547.313-1.721Z"/>
  </g>
  <g>
    <g>
      <line class="b" x1=".098" y1="1" x2="179.359" y2="1"/>
      <line class="b" x1="1" y1="140.608" x2="1" y2="1.902"/>
    </g>
    <g>
      <line class="b" x1="178.461" y1="140.608" x2="178.461" y2="1.902"/>
      <line class="b" x1=".098" y1="141.506" x2="179.359" y2="141.506"/>
    </g>
  </g>
</svg>